# Blender v2.73 (sub 0) OBJ File: ''
# www.blender.org
mtllib emoji.mtl
o Circle
v -0.000000 0.548275 -1.673108
v -0.326407 0.548275 -1.640959
v -0.640271 0.548275 -1.545750
v -0.929529 0.548275 -1.391138
v -1.183066 0.548275 -1.183066
v -1.391138 0.548275 -0.929529
v -1.545750 0.548275 -0.640271
v -1.640959 0.548275 -0.326407
v -1.673108 0.548275 -0.000000
v -1.640960 0.548275 0.326407
v -1.545750 0.548275 0.640270
v -1.391138 0.548275 0.929529
v -1.183066 0.548275 1.183066
v -0.929529 0.548275 1.391138
v -0.640270 0.548275 1.545750
v -0.326407 0.548275 1.640959
v 0.000001 0.548275 1.673108
v 0.326408 0.548275 1.640959
v 0.640271 0.548275 1.545750
v 0.929530 0.548275 1.391138
v 1.183067 0.548275 1.183065
v 1.391139 0.548275 0.929528
v 1.545750 0.548275 0.640269
v 1.640960 0.548275 0.326406
v 1.673108 0.548275 -0.000002
v 1.640959 0.548275 -0.326409
v 1.545749 0.548275 -0.640272
v 1.391137 0.548275 -0.929531
v 1.183064 0.548275 -1.183067
v 0.929527 0.548275 -1.391140
v 0.640268 0.548275 -1.545751
v 0.326405 0.548275 -1.640960
vn 0.000000 1.000000 0.000000
usemtl None
s off
f 2//1 4//1 18//1
f 32//1 1//1 2//1
f 30//1 31//1 32//1
f 26//1 29//1 30//1
f 29//1 27//1 28//1
f 24//1 25//1 26//1
f 22//1 23//1 24//1
f 20//1 21//1 22//1
f 22//1 19//1 20//1
f 16//1 17//1 18//1
f 13//1 15//1 16//1
f 15//1 13//1 14//1
f 13//1 11//1 12//1
f 8//1 9//1 10//1
f 4//1 7//1 8//1
f 7//1 5//1 6//1
f 2//1 3//1 4//1
f 30//1 32//1 2//1
f 26//1 27//1 29//1
f 22//1 24//1 26//1
f 18//1 19//1 22//1
f 13//1 16//1 18//1
f 18//1 11//1 13//1
f 4//1 8//1 10//1
f 7//1 4//1 5//1
f 26//1 30//1 2//1
f 18//1 22//1 26//1
f 10//1 11//1 18//1
f 18//1 4//1 10//1
f 18//1 26//1 2//1
