# Blender v2.73 (sub 0) OBJ File: ''
# www.blender.org
o Circle
v 0.000000 0.000000 -1.799195
v -0.351005 0.000000 -1.764624
v -0.688522 0.000000 -1.662239
v -0.999579 0.000000 -1.495976
v -1.272223 0.000000 -1.272223
v -1.495976 0.000000 -0.999579
v -1.662239 0.000000 -0.688522
v -1.764624 0.000000 -0.351005
v -1.799195 0.000000 -0.000000
v -1.764624 0.000000 0.351005
v -1.662239 0.000000 0.688522
v -1.495976 0.000000 0.999579
v -1.272223 0.000000 1.272223
v -0.999579 0.000000 1.495976
v -0.688522 0.000000 1.662239
v -0.351005 0.000000 1.764624
v 0.000001 0.000000 1.799195
v 0.351006 0.000000 1.764623
v 0.688523 0.000000 1.662239
v 0.999580 0.000000 1.495975
v 1.272223 0.000000 1.272222
v 1.495976 0.000000 0.999578
v 1.662240 0.000000 0.688521
v 1.764624 0.000000 0.351004
v 1.799195 0.000000 -0.000002
v 1.764623 0.000000 -0.351007
v 1.662238 0.000000 -0.688524
v 1.495974 0.000000 -0.999581
v 1.272221 0.000000 -1.272224
v 0.999577 0.000000 -1.495977
v 0.688520 0.000000 -1.662240
v 0.351003 0.000000 -1.764624
v 0.000000 0.497665 -1.799195
v -0.351005 0.497665 -1.764624
v -0.688522 0.497665 -1.662239
v -0.999579 0.497665 -1.495976
v -1.272223 0.497665 -1.272223
v -1.495976 0.497665 -0.999579
v -1.662239 0.497665 -0.688522
v -1.764624 0.497665 -0.351005
v -1.799195 0.497665 -0.000000
v -1.764624 0.497665 0.351005
v -1.662239 0.497665 0.688522
v -1.495976 0.497665 0.999579
v -1.272223 0.497665 1.272223
v -0.999579 0.497665 1.495976
v -0.688522 0.497665 1.662239
v -0.351005 0.497665 1.764624
v 0.000001 0.497665 1.799195
v 0.351006 0.497665 1.764623
v 0.688523 0.497665 1.662239
v 0.999580 0.497665 1.495975
v 1.272223 0.497665 1.272222
v 1.495976 0.497665 0.999578
v 1.662240 0.497665 0.688521
v 1.764624 0.497665 0.351004
v 1.799195 0.497665 -0.000002
v 1.764623 0.497665 -0.351007
v 1.662238 0.497665 -0.688524
v 1.495974 0.497665 -0.999581
v 1.272221 0.497665 -1.272224
v 0.999577 0.497665 -1.495977
v 0.688520 0.497665 -1.662240
v 0.351003 0.497665 -1.764624
v -0.000000 0.706455 -1.514333
v -0.295432 0.706455 -1.485235
v -0.579510 0.706455 -1.399061
v -0.841318 0.706455 -1.259122
v -1.070795 0.706455 -1.070795
v -1.259122 0.706455 -0.841318
v -1.399061 0.706455 -0.579510
v -1.485235 0.706455 -0.295432
v -1.514333 0.706455 -0.000000
v -1.485235 0.706455 0.295431
v -1.399061 0.706455 0.579510
v -1.259122 0.706455 0.841318
v -1.070795 0.706455 1.070795
v -0.841318 0.706455 1.259122
v -0.579510 0.706455 1.399061
v -0.295431 0.706455 1.485235
v 0.000000 0.706455 1.514333
v 0.295432 0.706455 1.485235
v 0.579511 0.706455 1.399061
v 0.841319 0.706455 1.259121
v 1.070796 0.706455 1.070794
v 1.259122 0.706455 0.841317
v 1.399062 0.706455 0.579509
v 1.485236 0.706455 0.295430
v 1.514333 0.706455 -0.000002
v 1.485235 0.706455 -0.295433
v 1.399060 0.706455 -0.579512
v 1.259121 0.706455 -0.841320
v 1.070794 0.706455 -1.070796
v 0.841316 0.706455 -1.259123
v 0.579508 0.706455 -1.399062
v 0.295429 0.706455 -1.485236
v -0.000000 0.706455 0.169802
v 0.033127 0.706455 0.166539
v 0.064981 0.706455 0.156877
v 0.094337 0.706455 0.141185
v 0.120068 0.706455 0.120068
v 0.141186 0.706455 0.094337
v 0.156877 0.706455 0.064980
v 0.166540 0.706455 0.033126
v 0.169803 0.706455 -0.000001
v 0.166540 0.706455 -0.033127
v 0.156877 0.706455 -0.064981
v 0.141186 0.706455 -0.094338
v 0.120068 0.706455 -0.120069
v 0.094337 0.706455 -0.141186
v 0.064980 0.706455 -0.156878
v 0.033127 0.706455 -0.166541
v -0.000000 0.706455 -0.169803
v -0.033127 0.706455 -0.166541
v -0.064981 0.706455 -0.156878
v -0.094338 0.706455 -0.141186
v -0.120069 0.706455 -0.120069
v -0.141186 0.706455 -0.094338
v -0.156878 0.706455 -0.064981
v -0.166540 0.706455 -0.033127
v -0.169803 0.706455 -0.000000
v -0.166540 0.706455 0.033126
v -0.156877 0.706455 0.064980
v -0.141186 0.706455 0.094337
v -0.120069 0.706455 0.120068
v -0.094337 0.706455 0.141185
v -0.064981 0.706455 0.156877
v -0.033127 0.706455 0.166539
vn 0.881900 0.000000 -0.471400
vn -0.773000 0.000000 -0.634400
vn -0.098000 0.000000 0.995200
vn 0.995200 0.000000 -0.098000
vn -0.471400 0.000000 -0.881900
vn -0.471400 0.000000 0.881900
vn 0.956900 0.000000 0.290300
vn -0.098000 0.000000 -0.995200
vn -0.773000 0.000000 0.634400
vn 0.098000 0.000000 -0.995200
vn 0.773000 0.000000 0.634400
vn -0.956900 0.000000 0.290300
vn 0.471400 0.000000 -0.881900
vn 0.471400 0.000000 0.881900
vn -0.995200 0.000000 -0.098000
vn 0.773000 0.000000 -0.634400
vn 0.098000 0.000000 0.995200
vn -0.881900 0.000000 -0.471400
vn 0.956900 0.000000 -0.290300
vn -0.634400 0.000000 -0.773000
vn -0.290300 0.000000 0.956900
vn 0.995200 0.000000 0.098000
vn -0.290300 0.000000 -0.956900
vn -0.634400 0.000000 0.773000
vn 0.881900 0.000000 0.471400
vn -0.881900 0.000000 0.471400
vn 0.290300 0.000000 -0.956900
vn 0.634400 0.000000 0.773000
vn -0.995200 0.000000 0.098000
vn 0.634400 0.000000 -0.773000
vn 0.290300 0.000000 0.956900
vn -0.956900 0.000000 -0.290300
vn 0.458400 0.805200 -0.376200
vn 0.058100 0.805200 0.590200
vn -0.523000 0.805200 -0.279500
vn 0.567500 0.805200 -0.172100
vn -0.376200 0.805200 -0.458400
vn -0.172100 0.805200 0.567500
vn 0.590200 0.805200 0.058100
vn -0.172100 0.805200 -0.567500
vn -0.376200 0.805200 0.458400
vn 0.523000 0.805200 0.279500
vn -0.523000 0.805200 0.279500
vn 0.172100 0.805200 -0.567500
vn 0.376200 0.805200 0.458400
vn -0.590200 0.805200 0.058100
vn 0.376200 0.805200 -0.458400
vn 0.172100 0.805200 0.567500
vn -0.567500 0.805200 -0.172100
vn 0.523000 0.805200 -0.279500
vn -0.458400 0.805200 -0.376200
vn -0.058100 0.805200 0.590200
vn 0.590200 0.805200 -0.058100
vn -0.279500 0.805200 -0.523000
vn -0.279500 0.805200 0.523000
vn 0.567500 0.805200 0.172100
vn -0.058100 0.805200 -0.590200
vn -0.458400 0.805200 0.376200
vn 0.058100 0.805200 -0.590200
vn 0.458400 0.805200 0.376200
vn -0.567500 0.805200 0.172100
vn 0.279500 0.805200 -0.523000
vn 0.279500 0.805200 0.523000
vn -0.590200 0.805200 -0.058100
vn -0.000000 1.000000 0.000000
vn 0.000000 -1.000000 0.000000
s off
f 28//1 60//1 59//1
f 6//2 38//2 37//2
f 17//3 49//3 48//3
f 26//4 58//4 57//4
f 4//5 36//5 35//5
f 15//6 47//6 46//6
f 24//7 56//7 55//7
f 2//8 34//8 33//8
f 13//9 45//9 44//9
f 1//10 33//10 64//10
f 22//11 54//11 53//11
f 11//12 43//12 42//12
f 31//13 63//13 62//13
f 20//14 52//14 51//14
f 9//15 41//15 40//15
f 29//16 61//16 60//16
f 18//17 50//17 49//17
f 7//18 39//18 38//18
f 27//19 59//19 58//19
f 5//20 37//20 36//20
f 16//21 48//21 47//21
f 25//22 57//22 56//22
f 3//23 35//23 34//23
f 14//24 46//24 45//24
f 23//25 55//25 54//25
f 12//26 44//26 43//26
f 32//27 64//27 63//27
f 21//28 53//28 52//28
f 10//29 42//29 41//29
f 30//30 62//30 61//30
f 19//31 51//31 50//31
f 8//32 40//32 39//32
f 61//33 93//33 92//33
f 49//34 50//34 82//34
f 39//35 71//35 70//35
f 59//36 91//36 90//36
f 37//37 69//37 68//37
f 48//38 80//38 79//38
f 57//39 89//39 88//39
f 35//40 67//40 66//40
f 46//41 78//41 77//41
f 55//42 87//42 86//42
f 43//43 44//43 76//43
f 64//44 96//44 95//44
f 52//45 53//45 85//45
f 42//46 74//46 73//46
f 62//47 94//47 93//47
f 51//48 83//48 82//48
f 39//49 40//49 72//49
f 60//50 92//50 91//50
f 37//51 38//51 70//51
f 48//52 49//52 81//52
f 58//53 90//53 89//53
f 36//54 68//54 67//54
f 46//55 47//55 79//55
f 56//56 88//56 87//56
f 34//57 66//57 65//57
f 44//58 45//58 77//58
f 33//59 65//59 96//59
f 54//60 86//60 85//60
f 43//61 75//61 74//61
f 63//62 95//62 94//62
f 52//63 84//63 83//63
f 40//64 41//64 73//64
f 94//65 95//65 127//65
f 97//65 106//65 111//65
f 83//65 84//65 116//65
f 72//65 73//65 105//65
f 92//65 93//65 125//65
f 81//65 82//65 114//65
f 70//65 71//65 103//65
f 90//65 91//65 123//65
f 68//65 69//65 101//65
f 79//65 80//65 112//65
f 88//65 89//65 121//65
f 66//65 67//65 99//65
f 77//65 78//65 110//65
f 86//65 87//65 119//65
f 75//65 76//65 108//65
f 95//65 96//65 128//65
f 84//65 85//65 117//65
f 73//65 74//65 106//65
f 93//65 94//65 126//65
f 82//65 83//65 115//65
f 71//65 72//65 104//65
f 91//65 92//65 124//65
f 69//65 70//65 102//65
f 80//65 81//65 113//65
f 89//65 90//65 122//65
f 67//65 68//65 100//65
f 78//65 79//65 111//65
f 87//65 88//65 120//65
f 65//65 66//65 98//65
f 76//65 77//65 109//65
f 96//65 65//65 97//65
f 85//65 86//65 118//65
f 74//65 75//65 107//65
f 27//1 28//1 59//1
f 5//2 6//2 37//2
f 16//3 17//3 48//3
f 25//4 26//4 57//4
f 3//5 4//5 35//5
f 14//6 15//6 46//6
f 23//7 24//7 55//7
f 1//8 2//8 33//8
f 12//9 13//9 44//9
f 32//10 1//10 64//10
f 21//11 22//11 53//11
f 10//12 11//12 42//12
f 30//13 31//13 62//13
f 19//14 20//14 51//14
f 8//15 9//15 40//15
f 28//16 29//16 60//16
f 17//17 18//17 49//17
f 6//18 7//18 38//18
f 26//19 27//19 58//19
f 4//20 5//20 36//20
f 15//21 16//21 47//21
f 24//22 25//22 56//22
f 2//23 3//23 34//23
f 13//24 14//24 45//24
f 22//25 23//25 54//25
f 11//26 12//26 43//26
f 31//27 32//27 63//27
f 20//28 21//28 52//28
f 9//29 10//29 41//29
f 29//30 30//30 61//30
f 18//31 19//31 50//31
f 7//32 8//32 39//32
f 60//33 61//33 92//33
f 81//34 49//34 82//34
f 38//35 39//35 70//35
f 58//36 59//36 90//36
f 36//37 37//37 68//37
f 47//38 48//38 79//38
f 56//39 57//39 88//39
f 34//40 35//40 66//40
f 45//41 46//41 77//41
f 54//42 55//42 86//42
f 75//43 43//43 76//43
f 63//44 64//44 95//44
f 84//45 52//45 85//45
f 41//46 42//46 73//46
f 61//47 62//47 93//47
f 50//48 51//48 82//48
f 71//49 39//49 72//49
f 59//50 60//50 91//50
f 69//51 37//51 70//51
f 80//52 48//52 81//52
f 57//53 58//53 89//53
f 35//54 36//54 67//54
f 78//55 46//55 79//55
f 55//56 56//56 87//56
f 33//57 34//57 65//57
f 76//58 44//58 77//58
f 64//59 33//59 96//59
f 53//60 54//60 85//60
f 42//61 43//61 74//61
f 62//62 63//62 94//62
f 51//63 52//63 83//63
f 72//64 40//64 73//64
f 126//66 94//66 127//66
f 99//65 97//65 98//65
f 97//65 127//65 128//65
f 120//65 125//65 126//65
f 122//65 123//65 124//65
f 125//65 121//65 122//65
f 118//65 119//65 120//65
f 116//65 117//65 118//65
f 113//65 115//65 116//65
f 115//65 113//65 114//65
f 113//65 111//65 112//65
f 111//65 109//65 110//65
f 106//65 107//65 108//65
f 104//65 105//65 106//65
f 102//65 103//65 104//65
f 99//65 101//65 102//65
f 101//65 99//65 100//65
f 126//65 127//65 97//65
f 122//65 124//65 125//65
f 125//65 120//65 121//65
f 120//65 116//65 118//65
f 97//65 111//65 113//65
f 111//65 108//65 109//65
f 99//65 104//65 106//65
f 104//65 99//65 102//65
f 113//65 126//65 97//65
f 126//65 116//65 120//65
f 106//65 108//65 111//65
f 97//65 99//65 106//65
f 113//65 116//65 126//65
f 115//66 83//66 116//66
f 104//66 72//66 105//66
f 124//66 92//66 125//66
f 113//66 81//66 114//66
f 102//66 70//66 103//66
f 122//66 90//66 123//66
f 100//66 68//66 101//66
f 111//66 79//66 112//66
f 120//66 88//66 121//66
f 98//66 66//66 99//66
f 109//66 77//66 110//66
f 118//66 86//66 119//66
f 107//66 75//66 108//66
f 127//66 95//66 128//66
f 116//66 84//66 117//66
f 105//66 73//66 106//66
f 125//66 93//66 126//66
f 114//66 82//66 115//66
f 103//66 71//66 104//66
f 123//66 91//66 124//66
f 101//66 69//66 102//66
f 112//66 80//66 113//66
f 121//66 89//66 122//66
f 99//66 67//66 100//66
f 110//66 78//66 111//66
f 119//66 87//66 120//66
f 97//66 65//66 98//66
f 108//66 76//66 109//66
f 128//66 96//66 97//66
f 117//66 85//66 118//66
f 106//66 74//66 107//66
